<svg width="26" height="27" viewBox="0 0 26 27" fill="none" xmlns="http://www.w3.org/2000/svg">
<g clip-path="url(#clip0)">
<path d="M15.27 26.0381C15.1635 26.0555 15.0565 26.0715 14.9492 26.0861C15.0565 26.0715 15.1635 26.0555 15.27 26.0381Z" fill="#FF923B"/>
<path d="M15.5258 25.9941C15.4749 26.0035 15.424 26.0121 15.373 26.0209C15.424 26.0121 15.4749 26.0035 15.5258 25.9941Z" fill="#FF923B"/>
<path d="M14.6636 26.1211C14.5389 26.1351 14.4135 26.1476 14.2876 26.1582C14.4135 26.1476 14.5389 26.1351 14.6636 26.1211Z" fill="#FF923B"/>
<path d="M14.9093 26.0918C14.8494 26.0998 14.7891 26.1072 14.729 26.1142C14.7891 26.1072 14.8494 26.0998 14.9093 26.0918Z" fill="#FF923B"/>
<path d="M15.8743 25.9258C15.8294 25.9353 15.7843 25.9449 15.7393 25.9541C15.7843 25.9449 15.8294 25.9353 15.8743 25.9258Z" fill="#FF923B"/>
<path d="M16.7393 25.7109C16.7026 25.7214 16.666 25.7312 16.6294 25.7415C16.666 25.7312 16.7026 25.7214 16.7393 25.7109Z" fill="#FF923B"/>
<path d="M16.477 25.7822C16.4376 25.7926 16.398 25.8031 16.3584 25.8131C16.398 25.8031 16.4376 25.7928 16.477 25.7822Z" fill="#FF923B"/>
<path d="M16.1349 25.8672C16.0931 25.8769 16.0509 25.8861 16.0088 25.8955C16.0509 25.8861 16.0931 25.8769 16.1349 25.8672Z" fill="#FF923B"/>
<path d="M14.2837 26.1592C14.2164 26.1648 14.1491 26.1699 14.0815 26.1744C14.1491 26.1699 14.2164 26.1648 14.2837 26.1592Z" fill="#FF923B"/>
<path d="M25.997 13.4157C25.997 6.35376 20.2702 0.626953 13.2082 0.626953C6.14624 0.626953 0.419434 6.35376 0.419434 13.4157C0.419434 20.4777 6.14624 26.2045 13.2082 26.2045C13.2833 26.2045 13.3581 26.2029 13.433 26.2016V16.2461H10.6854V13.044H13.433V10.6877C13.433 7.95489 15.1013 6.46753 17.539 6.46753C18.7063 6.46753 19.7097 6.55456 20.0022 6.59339V9.44948H18.3213C16.9951 9.44948 16.7383 10.0798 16.7383 11.0046V13.044H19.9094L19.496 16.2461H16.7383V25.7104C22.0838 24.178 25.997 19.2532 25.997 13.4157Z" fill="#FF923B"/>
<path d="M14.0532 26.1758C13.9201 26.1844 13.7864 26.1912 13.6523 26.1957C13.7864 26.1912 13.9201 26.1844 14.0532 26.1758Z" fill="#FF923B"/>
<path d="M13.6459 26.1963C13.5753 26.1986 13.5044 26.2004 13.4336 26.2016C13.5044 26.2004 13.5753 26.1986 13.6459 26.1963Z" fill="#FF923B"/>
</g>
<defs>
<clipPath id="clip0">
<rect x="0.419434" y="0.626953" width="25.5775" height="25.5775" fill="white"/>
</clipPath>
</defs>
</svg>
