<svg width="27" height="27" viewBox="0 0 27 27" fill="none" xmlns="http://www.w3.org/2000/svg">
<g clip-path="url(#clip0)">
<path d="M16.0275 13.4156C16.0275 14.7676 14.9316 15.8635 13.5797 15.8635C12.2277 15.8635 11.1318 14.7676 11.1318 13.4156C11.1318 12.0637 12.2277 10.9678 13.5797 10.9678C14.9316 10.9678 16.0275 12.0637 16.0275 13.4156Z" fill="#FF923B"/>
<path d="M19.3042 9.08484C19.1866 8.76598 18.9988 8.47737 18.7549 8.24047C18.518 7.99654 18.2296 7.80882 17.9105 7.69115C17.6518 7.59065 17.2631 7.47103 16.5471 7.43844C15.7726 7.40312 15.5404 7.39551 13.5796 7.39551C11.6186 7.39551 11.3864 7.40292 10.6121 7.43824C9.89609 7.47103 9.50718 7.59065 9.24861 7.69115C8.92956 7.80882 8.64094 7.99654 8.40424 8.24047C8.16031 8.47737 7.97259 8.76579 7.85472 9.08484C7.75422 9.3436 7.6346 9.73252 7.60201 10.4485C7.56669 11.2228 7.55908 11.455 7.55908 13.416C7.55908 15.3768 7.56669 15.609 7.60201 16.3835C7.6346 17.0995 7.75422 17.4882 7.85472 17.747C7.97259 18.066 8.16012 18.3544 8.40404 18.5913C8.64094 18.8353 8.92936 19.023 9.24842 19.1407C9.50718 19.2414 9.89609 19.361 10.6121 19.3936C11.3864 19.4289 11.6184 19.4363 13.5794 19.4363C15.5406 19.4363 15.7728 19.4289 16.5469 19.3936C17.2629 19.361 17.6518 19.2414 17.9105 19.1407C18.551 18.8936 19.0572 18.3874 19.3042 17.747C19.4047 17.4882 19.5244 17.0995 19.5571 16.3835C19.5925 15.609 19.5999 15.3768 19.5999 13.416C19.5999 11.455 19.5925 11.2228 19.5571 10.4485C19.5246 9.73252 19.4049 9.3436 19.3042 9.08484ZM13.5796 17.1867C11.4968 17.1867 9.80847 15.4985 9.80847 13.4158C9.80847 11.3331 11.4968 9.6449 13.5796 9.6449C15.6621 9.6449 17.3505 11.3331 17.3505 13.4158C17.3505 15.4985 15.6621 17.1867 13.5796 17.1867ZM17.4996 10.3771C17.0129 10.3771 16.6183 9.98249 16.6183 9.49581C16.6183 9.00913 17.0129 8.61455 17.4996 8.61455C17.9863 8.61455 18.3808 9.00913 18.3808 9.49581C18.3806 9.98249 17.9863 10.3771 17.4996 10.3771Z" fill="#FF923B"/>
<path d="M13.5798 0.626953C6.51782 0.626953 0.791016 6.35376 0.791016 13.4157C0.791016 20.4777 6.51782 26.2045 13.5798 26.2045C20.6418 26.2045 26.3686 20.4777 26.3686 13.4157C26.3686 6.35376 20.6418 0.626953 13.5798 0.626953ZM20.879 16.4433C20.8435 17.2251 20.7192 17.7588 20.5377 18.226C20.1562 19.2124 19.3765 19.9922 18.39 20.3737C17.923 20.5552 17.3891 20.6793 16.6076 20.715C15.8245 20.7507 15.5743 20.7593 13.58 20.7593C11.5854 20.7593 11.3355 20.7507 10.5522 20.715C9.77063 20.6793 9.23672 20.5552 8.76975 20.3737C8.27956 20.1893 7.83581 19.9003 7.46894 19.5266C7.09544 19.1599 6.80644 18.716 6.62203 18.226C6.44055 17.759 6.31624 17.2251 6.28073 16.4435C6.24463 15.6602 6.23623 15.4101 6.23623 13.4157C6.23623 11.4214 6.24463 11.1712 6.28053 10.3881C6.31605 9.60637 6.44016 9.07266 6.62164 8.60549C6.80605 8.11549 7.09525 7.67155 7.46894 7.30488C7.83561 6.93118 8.27956 6.64218 8.76956 6.45777C9.23672 6.27629 9.77044 6.15218 10.5522 6.11647C11.3353 6.08076 11.5854 6.07217 13.5798 6.07217C15.5741 6.07217 15.8243 6.08076 16.6074 6.11666C17.3891 6.15218 17.9228 6.27629 18.39 6.45758C18.88 6.64198 19.324 6.93118 19.6908 7.30488C20.0643 7.67174 20.3535 8.11549 20.5377 8.60549C20.7194 9.07266 20.8435 9.60637 20.8792 10.3881C20.9149 11.1712 20.9233 11.4214 20.9233 13.4157C20.9233 15.4101 20.9149 15.6602 20.879 16.4433Z" fill="#FF923B"/>
</g>
<defs>
<clipPath id="clip0">
<rect x="0.791016" y="0.626953" width="25.5775" height="25.5775" fill="white"/>
</clipPath>
</defs>
</svg>
