<svg width="26" height="27" viewBox="0 0 26 27" fill="none" xmlns="http://www.w3.org/2000/svg">
<g clip-path="url(#clip0)">
<path d="M14.9013 26.0938C14.7964 26.1088 14.6865 26.1289 14.5815 26.1439C14.6865 26.1239 14.7914 26.1088 14.9013 26.0938Z" fill="#FF923B"/>
<path d="M15.1558 26.0488C15.1059 26.0589 15.0559 26.0689 15.001 26.0739C15.0559 26.0689 15.1059 26.0589 15.1558 26.0488Z" fill="#FF923B"/>
<path d="M14.2917 26.1738C14.1668 26.1889 14.0419 26.1989 13.917 26.2089C14.0419 26.2039 14.1668 26.1889 14.2917 26.1738Z" fill="#FF923B"/>
<path d="M14.5417 26.1436C14.4817 26.1536 14.4218 26.1586 14.3618 26.1636C14.4168 26.1586 14.4817 26.1536 14.5417 26.1436Z" fill="#FF923B"/>
<path d="M15.5055 25.9785C15.4605 25.9886 15.4156 25.9986 15.3706 26.0086C15.4156 25.9986 15.4605 25.9886 15.5055 25.9785Z" fill="#FF923B"/>
<path d="M16.3711 25.7627C16.3359 25.7728 16.2955 25.7829 16.2603 25.7931C16.2955 25.7829 16.3308 25.7728 16.3711 25.7627Z" fill="#FF923B"/>
<path d="M16.1052 25.833C16.0653 25.843 16.0253 25.8531 15.9854 25.8631C16.0253 25.8581 16.0653 25.8481 16.1052 25.833Z" fill="#FF923B"/>
<path d="M15.7655 25.9229C15.7256 25.9329 15.6806 25.9429 15.6406 25.953C15.6806 25.9379 15.7256 25.9279 15.7655 25.9229Z" fill="#FF923B"/>
<path d="M13.9122 26.2139C13.8473 26.2189 13.7773 26.2239 13.7124 26.2289C13.7773 26.2239 13.8473 26.2189 13.9122 26.2139Z" fill="#FF923B"/>
<path d="M12.8381 26.2591C19.9011 26.2591 25.6269 20.5089 25.6269 13.4157C25.6269 6.32246 19.9011 0.572266 12.8381 0.572266C5.77504 0.572266 0.0493164 6.32246 0.0493164 13.4157C0.0493164 20.5089 5.77504 26.2591 12.8381 26.2591Z" fill="#FF923B"/>
<path d="M18.5881 14.6805C18.5631 14.5049 18.5032 14.3243 18.4333 14.1637C18.2384 13.7323 17.8038 13.4463 17.2943 13.5115C17.0095 13.5466 16.7597 13.662 16.5349 13.8276C16.1952 14.0784 15.8455 14.3142 15.4509 14.4748C14.9064 14.7005 14.3419 14.851 13.7524 14.9263C13.4327 14.9664 13.1129 15.0016 12.7932 15.0016C12.3136 15.0016 11.844 14.9313 11.3745 14.831C10.5901 14.6604 9.8508 14.3744 9.20636 13.8778C9.03651 13.7473 8.83169 13.647 8.63187 13.5717C8.09234 13.3761 7.53783 13.5968 7.26806 14.1035C7.13318 14.3544 7.03827 14.6203 7.08822 14.9163C7.13818 15.1872 7.28805 15.4029 7.48787 15.5835C7.92749 15.9899 8.42205 16.321 8.95159 16.5869C9.79085 17.0134 10.6951 17.209 11.6192 17.3294C11.7092 17.3395 11.7991 17.3545 11.914 17.3645C11.869 17.4147 11.844 17.4448 11.8141 17.4749C10.6351 18.6589 9.46114 19.8379 8.28217 21.0219C8.07735 21.2276 7.98244 21.4785 7.96245 21.7644C7.91749 22.3564 8.49199 22.9133 8.91162 23.0136C8.96158 23.0237 9.00654 23.0437 9.0515 23.0588C9.14642 23.0588 9.24133 23.0588 9.33125 23.0588C9.46614 23.0086 9.616 22.9835 9.7309 22.9033C9.92074 22.7678 10.1006 22.6073 10.2654 22.4367C11.1047 21.5989 11.939 20.756 12.7732 19.9132C12.8232 19.863 12.8532 19.853 12.9081 19.9081C13.5376 20.5453 14.172 21.1825 14.8064 21.8196C15.1112 22.1256 15.4159 22.4317 15.7206 22.7377C15.8755 22.8882 16.0603 22.9835 16.2702 23.0287C16.3001 23.0337 16.3301 23.0488 16.3601 23.0588C16.45 23.0588 16.5349 23.0588 16.6248 23.0588C16.6398 23.0538 16.6598 23.0387 16.6748 23.0387C16.9945 22.9835 17.2343 22.7979 17.4391 22.5621C17.8238 22.1156 17.8288 21.5286 17.4491 21.0771C17.3842 20.9968 17.3092 20.9266 17.2343 20.8513C16.1103 19.7175 14.9813 18.5887 13.8573 17.4548C13.8323 17.4298 13.8173 17.4047 13.7873 17.3696C13.8223 17.3595 13.8373 17.3545 13.8573 17.3545C14.0721 17.3244 14.2919 17.2943 14.5067 17.2592C15.5408 17.0886 16.5299 16.7926 17.4042 16.1805C17.7189 15.9598 18.0436 15.7491 18.2984 15.4581C18.4982 15.2323 18.6381 14.9815 18.5881 14.6805Z" fill="white"/>
<path d="M10.3153 12.8189C11.2645 13.4109 12.3086 13.6266 13.4126 13.4962C14.4617 13.3708 15.3809 12.9493 16.1502 12.2169C17.3142 11.1031 17.8088 9.72844 17.6589 8.12803C17.574 7.25006 17.2592 6.44734 16.7197 5.74497C15.8555 4.61615 14.7165 3.96896 13.3027 3.81846C13.1628 3.8034 13.023 3.79337 12.8831 3.77832C12.8531 3.77832 12.8181 3.77832 12.7882 3.77832C12.7582 3.78334 12.7282 3.79839 12.6982 3.79839C11.7291 3.82849 10.8449 4.11947 10.0556 4.68137C9.29623 5.21819 8.73173 5.91555 8.37204 6.77345C7.99737 7.6765 7.89246 8.61467 8.0823 9.57291C8.35706 10.9777 9.1064 12.0663 10.3153 12.8189ZM12.8381 6.2567C14.167 6.2567 15.236 7.33535 15.231 8.67488C15.236 9.97427 14.152 11.1031 12.7682 11.068C11.5193 11.0379 10.4302 9.99434 10.4402 8.62972C10.4502 7.33535 11.5343 6.2567 12.8381 6.2567Z" fill="white"/>
<path d="M13.6824 26.2285C13.5475 26.2385 13.4176 26.2436 13.2827 26.2486C13.4176 26.2436 13.5475 26.2385 13.6824 26.2285Z" fill="#FF923B"/>
<path d="M13.2778 26.249C13.2079 26.249 13.1379 26.254 13.063 26.254C13.1329 26.254 13.2029 26.254 13.2778 26.249Z" fill="#FF923B"/>
</g>
<defs>
<clipPath id="clip0">
<rect x="0.0493164" y="0.572266" width="25.5775" height="25.6868" fill="white"/>
</clipPath>
</defs>
</svg>
