<svg width="10" height="10" viewBox="0 0 10 10" fill="none" xmlns="http://www.w3.org/2000/svg">
<path fill-rule="evenodd" clip-rule="evenodd" d="M0.183599 3.75075C0.102746 3.77621 0.0392208 3.83922 0.0130157 3.91983C-0.0131712 4.00043 0.00120926 4.08874 0.0516138 4.15684L1.66009 6.32987L1.63607 9.03334C1.63532 9.11808 1.67559 9.19797 1.74416 9.24779C1.78954 9.28076 1.84362 9.29788 1.8983 9.29788C1.92626 9.29788 1.95435 9.29342 1.98153 9.28431L4.54526 8.42606L7.10896 9.28433C7.18932 9.31125 7.27775 9.29765 7.34634 9.24781C7.41492 9.19799 7.45517 9.1181 7.45443 9.03336L7.4304 6.32989L9.03888 4.15686C9.0893 4.08874 9.10368 4.00043 9.0775 3.91984C9.05129 3.83924 8.98777 3.77625 8.90691 3.75077L6.32838 2.9382L4.75875 0.736923C4.70954 0.66793 4.63002 0.626953 4.54526 0.626953C4.4605 0.626953 4.38098 0.66793 4.33176 0.736923L2.76215 2.9382L0.183599 3.75075Z" fill="#FFD320"/>
</svg>
