<svg width="10" height="10" viewBox="0 0 10 10" fill="none" xmlns="http://www.w3.org/2000/svg">
<path fill-rule="evenodd" clip-rule="evenodd" d="M0.665044 3.75075C0.584191 3.77621 0.520666 3.83922 0.494461 3.91983C0.468274 4.00043 0.482655 4.08874 0.533059 4.15684L2.14154 6.32987L2.11752 9.03334C2.11677 9.11808 2.15704 9.19797 2.2256 9.24779C2.27098 9.28076 2.32506 9.29788 2.37975 9.29788C2.40771 9.29788 2.4358 9.29342 2.46298 9.28431L5.0267 8.42606L7.59041 9.28433C7.67076 9.31125 7.7592 9.29765 7.82778 9.24781C7.89637 9.19799 7.93662 9.1181 7.93587 9.03336L7.91185 6.32989L9.52033 4.15686C9.57075 4.08874 9.58513 4.00043 9.55894 3.91984C9.53274 3.83924 9.46921 3.77625 9.38836 3.75077L6.80983 2.9382L5.2402 0.736923C5.19098 0.66793 5.11146 0.626953 5.0267 0.626953C4.94194 0.626953 4.86242 0.66793 4.81321 0.736923L3.24359 2.9382L0.665044 3.75075Z" fill="#C4C4C4"/>
</svg>
