<svg width="26" height="27" viewBox="0 0 26 27" fill="none" xmlns="http://www.w3.org/2000/svg">
<g clip-path="url(#clip0)">
<path d="M12.9504 0.626953C5.88843 0.626953 0.161621 6.35376 0.161621 13.4157C0.161621 20.4777 5.88843 26.2045 12.9504 26.2045C20.0124 26.2045 25.7392 20.4777 25.7392 13.4157C25.7392 6.35376 20.0124 0.626953 12.9504 0.626953ZM18.7896 10.5983C18.7953 10.7241 18.798 10.8506 18.798 10.9776C18.798 14.8565 15.8455 19.3293 10.4461 19.3295H10.4463H10.4461C8.78842 19.3295 7.24583 18.8436 5.94678 18.0109C6.17646 18.038 6.41024 18.0515 6.64694 18.0515C8.0223 18.0515 9.28798 17.5824 10.2928 16.795C9.00776 16.7712 7.92434 15.9225 7.55045 14.7561C7.72939 14.7905 7.91341 14.8092 8.10211 14.8092C8.37004 14.8092 8.62958 14.7731 8.87624 14.7058C7.53308 14.4369 6.52127 13.2499 6.52127 11.8284C6.52127 11.8152 6.52127 11.8033 6.52166 11.791C6.91721 12.0109 7.36955 12.1432 7.85116 12.158C7.06298 11.6321 6.54488 10.7331 6.54488 9.71468C6.54488 9.17687 6.69026 8.67301 6.94239 8.23921C8.38994 10.0154 10.5533 11.1835 12.9929 11.3062C12.9426 11.0912 12.9166 10.8672 12.9166 10.6369C12.9166 9.01646 14.2313 7.7018 15.8523 7.7018C16.6967 7.7018 17.4593 8.05871 17.995 8.6293C18.6637 8.49739 19.2917 8.25307 19.859 7.91684C19.6394 8.60198 19.1742 9.17687 18.5681 9.54042C19.1619 9.46938 19.7278 9.3119 20.2537 9.07813C19.8609 9.66687 19.3627 10.184 18.7896 10.5983Z" fill="#FF923B"/>
</g>
<defs>
<clipPath id="clip0">
<rect x="0.161621" y="0.626953" width="25.5775" height="25.5775" fill="white"/>
</clipPath>
</defs>
</svg>
