<svg width="27" height="27" viewBox="0 0 27 27" fill="none" xmlns="http://www.w3.org/2000/svg">
<g clip-path="url(#clip0)">
<path d="M15.3842 26.04C15.2793 26.055 15.1694 26.075 15.0645 26.09C15.1694 26.07 15.2743 26.055 15.3842 26.04Z" fill="#FF923B"/>
<path d="M15.6388 25.9951C15.5888 26.0051 15.5388 26.0151 15.4839 26.0201C15.5388 26.0151 15.5888 26.0051 15.6388 25.9951Z" fill="#FF923B"/>
<path d="M14.7746 26.1191C14.6497 26.1341 14.5248 26.1441 14.3999 26.1541C14.5248 26.1491 14.6497 26.1341 14.7746 26.1191Z" fill="#FF923B"/>
<path d="M15.0246 26.0898C14.9646 26.0998 14.9047 26.1048 14.8447 26.1098C14.8997 26.1048 14.9646 26.0998 15.0246 26.0898Z" fill="#FF923B"/>
<path d="M15.9884 25.9248C15.9434 25.9348 15.8985 25.9448 15.8535 25.9548C15.8985 25.9448 15.9434 25.9348 15.9884 25.9248Z" fill="#FF923B"/>
<path d="M16.8541 25.71C16.8188 25.72 16.7784 25.7301 16.7432 25.7402C16.7784 25.7301 16.8137 25.72 16.8541 25.71Z" fill="#FF923B"/>
<path d="M16.5882 25.7803C16.5482 25.7903 16.5082 25.8003 16.4683 25.8102C16.5082 25.8053 16.5482 25.7953 16.5882 25.7803Z" fill="#FF923B"/>
<path d="M16.2484 25.8701C16.2085 25.8801 16.1635 25.8901 16.1235 25.9001C16.1635 25.8851 16.2085 25.8751 16.2484 25.8701Z" fill="#FF923B"/>
<path d="M14.3951 26.1592C14.3302 26.1642 14.2603 26.1692 14.1953 26.1742C14.2603 26.1692 14.3302 26.1642 14.3951 26.1592Z" fill="#FF923B"/>
<path d="M13.321 26.2045C20.384 26.2045 26.1098 20.4788 26.1098 13.4157C26.1098 6.35268 20.384 0.626953 13.321 0.626953C6.25795 0.626953 0.532227 6.35268 0.532227 13.4157C0.532227 20.4788 6.25795 26.2045 13.321 26.2045Z" fill="#FF923B"/>
<path d="M14.1653 26.1748C14.0304 26.1848 13.9005 26.1898 13.7656 26.1948C13.9005 26.1898 14.0304 26.1848 14.1653 26.1748Z" fill="#FF923B"/>
<path d="M13.7607 26.1943C13.6908 26.1943 13.6208 26.1993 13.5459 26.1993C13.6158 26.1993 13.6858 26.1993 13.7607 26.1943Z" fill="#FF923B"/>
<path d="M14.5149 11.2878C14.5149 11.6724 14.5049 12.0521 14.5199 12.4367C14.5299 12.6266 14.5648 12.8164 14.6248 12.9963C14.6597 13.0962 14.7547 13.1761 14.8396 13.246C14.8745 13.276 14.9595 13.266 15.0044 13.241C15.0994 13.1861 15.1943 13.1211 15.2692 13.0412C15.7188 12.5367 16.1035 11.9921 16.3932 11.3827C16.613 10.9181 16.8278 10.4535 17.0327 9.9839C17.1376 9.74911 17.3174 9.6392 17.5572 9.63421C18.3415 9.62921 19.1258 9.62422 19.9151 9.63421C20.05 9.63421 20.1999 9.6442 20.3248 9.73912C20.4147 9.80905 20.4646 9.88399 20.4696 9.99889C20.4796 10.2786 20.3497 10.5184 20.2298 10.7582C19.9451 11.3327 19.5355 11.8223 19.1558 12.3368C18.876 12.7115 18.6013 13.0962 18.3315 13.4758C18.2766 13.5508 18.2366 13.6357 18.1966 13.7206C18.0967 13.9404 18.1617 14.1353 18.3165 14.3001C18.5263 14.5199 18.7412 14.7397 18.961 14.9545C19.1058 15.0994 19.2757 15.2193 19.4156 15.3692C19.7702 15.7488 20.1199 16.1335 20.3647 16.5981C20.4297 16.723 20.4546 16.8778 20.4596 17.0227C20.4696 17.2425 20.2298 17.4623 20.01 17.4623C19.2957 17.4623 18.5813 17.4523 17.8669 17.4673C17.5572 17.4723 17.2874 17.3724 17.0327 17.2275C16.7729 17.0777 16.5581 16.8778 16.3682 16.648C16.0935 16.3133 15.8087 15.9886 15.469 15.7189C15.3841 15.6539 15.3042 15.584 15.1843 15.589C15.0044 15.594 14.7946 15.7488 14.7447 15.9287C14.6947 16.1135 14.6348 16.2984 14.5948 16.4882C14.5648 16.6331 14.5648 16.7829 14.5448 16.9278C14.5199 17.1126 14.4799 17.2975 14.2901 17.3874C14.1901 17.4324 14.0703 17.4623 13.9554 17.4673C13.6656 17.4773 13.3709 17.4823 13.0811 17.4673C12.8863 17.4573 12.6915 17.4174 12.4966 17.3874C12.3767 17.3674 12.2568 17.3474 12.137 17.3275C12.117 17.3225 12.097 17.3225 12.077 17.3175C11.4026 17.1026 10.7632 16.8279 10.2136 16.3683C9.95886 16.1535 9.6941 15.9387 9.47928 15.6839C9.14458 15.2892 8.83485 14.8696 8.53511 14.445C8.30032 14.1103 8.0905 13.7556 7.8707 13.4109C7.44607 12.7465 7.11136 12.0421 6.76167 11.3377C6.57683 10.958 6.40698 10.5734 6.23214 10.1887C6.20716 10.1288 6.18718 10.0588 6.18218 9.99389C6.17219 9.79906 6.30207 9.66918 6.49191 9.66918C7.1863 9.65919 7.88568 9.64919 8.58007 9.6392C8.84984 9.63421 9.06465 9.74411 9.18954 9.97891C9.28945 10.1587 9.35939 10.3586 9.45431 10.5434C9.67911 10.988 9.90891 11.4326 10.1437 11.8722C10.3385 12.2369 10.5683 12.5816 10.8381 12.8913C10.943 13.0162 11.0729 13.1211 11.2028 13.2211C11.3976 13.3709 11.5375 13.256 11.6174 13.0912C11.6923 12.9463 11.7373 12.7715 11.7473 12.6116C11.7723 12.142 11.7923 11.6674 11.7823 11.1928C11.7773 10.9481 11.7373 10.6983 11.6724 10.4585C11.6074 10.2137 11.4276 10.0588 11.1828 9.97891C11.1278 9.96392 11.0729 9.95393 11.0179 9.93394C10.913 9.89398 10.8831 9.82404 10.953 9.73912C11.0229 9.65419 11.1029 9.57926 11.1928 9.51431C11.3327 9.40941 11.4875 9.36944 11.6674 9.37444C12.4317 9.38443 13.196 9.38443 13.9653 9.37444C14.1802 9.36944 14.4399 9.57426 14.4749 9.76909C14.4949 9.87899 14.5099 9.99389 14.5149 10.1088C14.5149 10.4935 14.5149 10.8881 14.5149 11.2878Z" fill="white"/>
</g>
<defs>
<clipPath id="clip0">
<rect x="0.532227" y="0.626953" width="25.5775" height="25.5775" fill="white"/>
</clipPath>
</defs>
</svg>
